<svg width="55" height="48" viewBox="0 0 55 48" fill="none" xmlns="http://www.w3.org/2000/svg">
<g clip-path="url(#clip0_378_23485)">
<path d="M27.4565 29C28.8399 29 30.019 28.5125 30.994 27.5375C31.969 26.5625 32.4565 25.3833 32.4565 24C32.4565 22.6167 31.969 21.4375 30.994 20.4625C30.019 19.4875 28.8399 19 27.4565 19C26.0732 19 24.894 19.4875 23.919 20.4625C22.944 21.4375 22.4565 22.6167 22.4565 24C22.4565 25.3833 22.944 26.5625 23.919 27.5375C24.894 28.5125 26.0732 29 27.4565 29ZM27.4565 34C26.0732 34 24.7732 33.7375 23.5565 33.2125C22.3399 32.6875 21.2815 31.975 20.3815 31.075C19.4815 30.175 18.769 29.1167 18.244 27.9C17.719 26.6833 17.4565 25.3833 17.4565 24C17.4565 22.6167 17.719 21.3167 18.244 20.1C18.769 18.8833 19.4815 17.825 20.3815 16.925C21.2815 16.025 22.3399 15.3125 23.5565 14.7875C24.7732 14.2625 26.0732 14 27.4565 14C28.8399 14 30.1399 14.2625 31.3565 14.7875C32.5732 15.3125 33.6315 16.025 34.5315 16.925C35.4315 17.825 36.144 18.8833 36.669 20.1C37.194 21.3167 37.4565 22.6167 37.4565 24C37.4565 25.3833 37.194 26.6833 36.669 27.9C36.144 29.1167 35.4315 30.175 34.5315 31.075C33.6315 31.975 32.5732 32.6875 31.3565 33.2125C30.1399 33.7375 28.8399 34 27.4565 34ZM27.4565 32C29.6899 32 31.5815 31.225 33.1315 29.675C34.6815 28.125 35.4565 26.2333 35.4565 24C35.4565 21.7667 34.6815 19.875 33.1315 18.325C31.5815 16.775 29.6899 16 27.4565 16C25.2232 16 23.3315 16.775 21.7815 18.325C20.2315 19.875 19.4565 21.7667 19.4565 24C19.4565 26.2333 20.2315 28.125 21.7815 29.675C23.3315 31.225 25.2232 32 27.4565 32Z" fill="white"/>
</g>
<defs>
<clipPath id="clip0_378_23485">
<rect x="7.45654" y="4" width="40" height="40" rx="20" fill="white"/>
</clipPath>
</defs>
</svg>
