<svg width="81" height="79" viewBox="0 0 81 79" fill="none" xmlns="http://www.w3.org/2000/svg">
<g filter="url(#filter0_d_468_2706)">
<ellipse cx="35.5" cy="34.5" rx="23.5" ry="22.5" fill="#21264F"/>
<path d="M58.5 34.5C58.5 46.63 48.2233 56.5 35.5 56.5C22.7767 56.5 12.5 46.63 12.5 34.5C12.5 22.37 22.7767 12.5 35.5 12.5C48.2233 12.5 58.5 22.37 58.5 34.5Z" stroke="url(#paint0_linear_468_2706)" stroke-opacity="0.5"/>
</g>
<path d="M25.1273 43V28.4545H30.312C31.4389 28.4545 32.374 28.6487 33.1174 29.0369C33.8655 29.4252 34.4242 29.9626 34.7935 30.6491C35.1628 31.331 35.3475 32.1193 35.3475 33.0142C35.3475 33.9044 35.1605 34.688 34.7864 35.3651C34.4171 36.0374 33.8584 36.5606 33.1103 36.9347C32.3669 37.3087 31.4318 37.4957 30.3049 37.4957H26.3773V35.6065H30.106C30.8162 35.6065 31.3939 35.5047 31.839 35.3011C32.2888 35.0975 32.6178 34.8016 32.8262 34.4134C33.0345 34.0251 33.1387 33.5587 33.1387 33.0142C33.1387 32.465 33.0321 31.9891 32.8191 31.5866C32.6107 31.1842 32.2817 30.8764 31.8319 30.6634C31.3868 30.4455 30.802 30.3366 30.0776 30.3366H27.3219V43H25.1273ZM32.3077 36.4375L35.9015 43H33.4015L29.8787 36.4375H32.3077ZM38.0179 43V28.4545H47.1373V30.3438H40.2125V34.7756H46.6614V36.6577H40.2125V41.1108H47.2225V43H38.0179Z" fill="#F5F5F5"/>
<defs>
<filter id="filter0_d_468_2706" x="0" y="0" width="81" height="79" filterUnits="userSpaceOnUse" color-interpolation-filters="sRGB">
<feFlood flood-opacity="0" result="BackgroundImageFix"/>
<feColorMatrix in="SourceAlpha" type="matrix" values="0 0 0 0 0 0 0 0 0 0 0 0 0 0 0 0 0 0 127 0" result="hardAlpha"/>
<feMorphology radius="5" operator="dilate" in="SourceAlpha" result="effect1_dropShadow_468_2706"/>
<feOffset dx="5" dy="5"/>
<feGaussianBlur stdDeviation="6"/>
<feComposite in2="hardAlpha" operator="out"/>
<feColorMatrix type="matrix" values="0 0 0 0 0 0 0 0 0 0 0 0 0 0 0 0 0 0 0.25 0"/>
<feBlend mode="normal" in2="BackgroundImageFix" result="effect1_dropShadow_468_2706"/>
<feBlend mode="normal" in="SourceGraphic" in2="effect1_dropShadow_468_2706" result="shape"/>
</filter>
<linearGradient id="paint0_linear_468_2706" x1="12" y1="13.0447" x2="46.6239" y2="64.661" gradientUnits="userSpaceOnUse">
<stop stop-color="#3A4962"/>
<stop offset="0.432541" stop-color="#FF90E8"/>
<stop offset="0.71" stop-color="#74CAFF"/>
<stop offset="0.921" stop-color="#292F65"/>
</linearGradient>
</defs>
</svg>
