<svg width="40" height="40" viewBox="0 0 40 40" fill="none" xmlns="http://www.w3.org/2000/svg">
<path d="M26.4068 5.57336L24.0268 6.87503L26.4068 8.17669L27.7085 10.5567L29.0102 8.17669L31.3902 6.87503L29.0102 5.57336L27.7085 3.19336L26.4068 5.57336ZM17.3535 6.93003C15.1707 7.37293 13.1336 8.35559 11.4282 9.78829C9.72289 11.221 8.40362 13.0581 7.59089 15.1318C6.77815 17.2055 6.49785 19.4498 6.77559 21.6597C7.05332 23.8696 7.88024 25.9747 9.18083 27.7829C10.4814 29.591 12.2142 31.0445 14.2211 32.0106C16.2279 32.9768 18.4448 33.4248 20.6693 33.3138C22.8938 33.2029 25.0551 32.5364 26.9558 31.3752C28.8565 30.2141 30.436 28.5953 31.5502 26.6667C27.5922 26.6359 23.8068 25.042 21.0189 22.2323C18.231 19.4225 16.6667 15.6248 16.6668 11.6667C16.6668 10.0334 16.8852 8.43836 17.3535 6.93003ZM3.3335 20C3.3335 10.795 10.7952 3.33336 20.0002 3.33336H22.8902L21.4435 5.83336C20.4785 7.50003 20.0002 9.48336 20.0002 11.6667C19.9999 13.3894 20.3812 15.0908 21.1165 16.6486C21.8519 18.2065 22.9232 19.5821 24.2533 20.6768C25.5835 21.7715 27.1396 22.558 28.8099 22.9798C30.4801 23.4017 32.223 23.4484 33.9135 23.1167L36.7168 22.5717L35.8118 25.2817C33.6035 31.895 27.3618 36.6667 20.0002 36.6667C10.7952 36.6667 3.3335 29.205 3.3335 20ZM34.1668 10.6934L35.6902 13.4767L38.4735 15L35.6902 16.5234L34.1668 19.3067L32.6435 16.5234L29.8602 15L32.6435 13.4767L34.1668 10.6934Z" fill="#DCDFFF" style="mix-blend-mode:multiply"/>
</svg>
