<svg width="21" height="20" viewBox="0 0 21 20" fill="none" xmlns="http://www.w3.org/2000/svg">
<path d="M10.4785 15C11.8618 15 13.041 14.5125 14.016 13.5375C14.991 12.5625 15.4785 11.3833 15.4785 10C15.4785 8.61667 14.991 7.4375 14.016 6.4625C13.041 5.4875 11.8618 5 10.4785 5C9.09518 5 7.91602 5.4875 6.94102 6.4625C5.96602 7.4375 5.47852 8.61667 5.47852 10C5.47852 11.3833 5.96602 12.5625 6.94102 13.5375C7.91602 14.5125 9.09518 15 10.4785 15ZM10.4785 20C9.09518 20 7.79518 19.7375 6.57852 19.2125C5.36185 18.6875 4.30352 17.975 3.40352 17.075C2.50352 16.175 1.79102 15.1167 1.26602 13.9C0.741016 12.6833 0.478516 11.3833 0.478516 10C0.478516 8.61667 0.741016 7.31667 1.26602 6.1C1.79102 4.88333 2.50352 3.825 3.40352 2.925C4.30352 2.025 5.36185 1.3125 6.57852 0.7875C7.79518 0.2625 9.09518 0 10.4785 0C11.8618 0 13.1618 0.2625 14.3785 0.7875C15.5952 1.3125 16.6535 2.025 17.5535 2.925C18.4535 3.825 19.166 4.88333 19.691 6.1C20.216 7.31667 20.4785 8.61667 20.4785 10C20.4785 11.3833 20.216 12.6833 19.691 13.9C19.166 15.1167 18.4535 16.175 17.5535 17.075C16.6535 17.975 15.5952 18.6875 14.3785 19.2125C13.1618 19.7375 11.8618 20 10.4785 20ZM10.4785 18C12.7118 18 14.6035 17.225 16.1535 15.675C17.7035 14.125 18.4785 12.2333 18.4785 10C18.4785 7.76667 17.7035 5.875 16.1535 4.325C14.6035 2.775 12.7118 2 10.4785 2C8.24518 2 6.35352 2.775 4.80352 4.325C3.25352 5.875 2.47852 7.76667 2.47852 10C2.47852 12.2333 3.25352 14.125 4.80352 15.675C6.35352 17.225 8.24518 18 10.4785 18Z" fill="#9F70A2"/>
</svg>
