<svg width="13" height="14" viewBox="0 0 13 14" fill="none" xmlns="http://www.w3.org/2000/svg">
<path d="M8.04343 0.297077C8.07008 0.237057 8.1083 0.182876 8.15589 0.137628C8.20348 0.0923797 8.25953 0.0569504 8.32081 0.0333636C8.3821 0.00977672 8.44744 -0.00150552 8.51309 0.000161041C8.57874 0.0018276 8.64342 0.0164103 8.70343 0.0430765C8.81943 0.0950765 10.6814 0.982076 11.9304 3.07308C12.5614 4.13308 12.8274 5.21808 12.9364 6.04608C12.9984 6.52106 13.0202 7.00043 13.0014 7.47908V7.50508V7.50108C13.0014 7.63368 12.9487 7.76086 12.855 7.85463C12.7612 7.9484 12.634 8.00108 12.5014 8.00108C12.3688 8.00108 12.2416 7.9484 12.1479 7.85463C12.0541 7.76086 12.0014 7.63368 12.0014 7.50108V7.45108C12.0164 7.10808 12.0914 5.29508 11.0714 3.58608C10.4585 2.56789 9.60305 1.71726 8.58143 1.11008C8.41043 1.01008 8.30543 0.960077 8.29743 0.957077C8.23741 0.930424 8.18323 0.89221 8.13798 0.844615C8.09273 0.797021 8.0573 0.740979 8.03372 0.67969C8.01013 0.618402 7.99885 0.553067 8.00051 0.487417C8.00218 0.421768 8.01676 0.35709 8.04343 0.297077ZM8.09543 2.71008C8.17316 2.60269 8.29035 2.53057 8.42124 2.50957C8.55213 2.48857 8.686 2.5204 8.79343 2.59808C8.79043 2.59608 9.02943 2.74608 9.31343 3.00808C9.60043 3.27008 9.95343 3.66108 10.2354 4.18508C10.5427 4.75967 10.7244 5.39298 10.7684 6.04308C10.7718 6.10308 10.7738 6.15108 10.7744 6.18708V6.25008C10.7744 6.38268 10.7217 6.50986 10.628 6.60363C10.5342 6.6974 10.407 6.75008 10.2744 6.75008C10.1418 6.75008 10.0146 6.6974 9.92087 6.60363C9.82711 6.50986 9.77443 6.38268 9.77443 6.25008V6.24708C9.76331 5.68221 9.61483 5.12854 9.34181 4.6339C9.0688 4.13927 8.67946 3.71854 8.20743 3.40808C8.10004 3.33035 8.02792 3.21315 8.00692 3.08226C7.98592 2.95137 8.01775 2.8175 8.09543 2.71008ZM0.537428 9.70708C0.027257 8.78971 -0.101867 7.70856 0.177908 6.69685C0.457684 5.68514 1.12394 4.82394 2.03295 4.29903C2.94196 3.77412 4.02089 3.62756 5.03698 3.89098C6.05308 4.15439 6.92491 4.80665 7.46443 5.70708L8.28443 7.12708L10.1904 8.51408C10.2577 8.56309 10.3117 8.62812 10.3475 8.70329C10.3833 8.77846 10.3998 8.86137 10.3954 8.94451C10.391 9.02765 10.366 9.10838 10.3225 9.17938C10.279 9.25037 10.2185 9.30939 10.1464 9.35108L7.61643 10.8111L7.62043 10.8141L4.88243 12.3941V12.3911L2.35243 13.8511C2.28029 13.8929 2.19884 13.916 2.11549 13.9183C2.03214 13.9206 1.94953 13.902 1.87519 13.8643C1.80085 13.8265 1.73714 13.7708 1.68985 13.7021C1.64256 13.6334 1.61319 13.554 1.60443 13.4711L1.35743 11.1281L0.537428 9.70708ZM8.25043 11.6051L5.25243 13.3351C5.51344 13.6631 5.88351 13.8865 6.29534 13.9647C6.70717 14.0429 7.13338 13.9707 7.49645 13.7612C7.85952 13.5517 8.13533 13.2188 8.2737 12.8231C8.41207 12.4274 8.40381 11.9952 8.25043 11.6051Z" fill="#DCDFFF"/>
</svg>
