<svg width="35" height="35" viewBox="0 0 35 35" fill="none" xmlns="http://www.w3.org/2000/svg">
<path d="M13.2566 13.1244C13.5994 12.1497 14.2762 11.3278 15.1669 10.8043C16.0577 10.2808 17.105 10.0895 18.1233 10.2641C19.1416 10.4388 20.0653 10.9682 20.7306 11.7587C21.396 12.5491 21.7602 13.5495 21.7587 14.5827C21.7587 17.4994 17.3837 18.9577 17.3837 18.9577M17.5003 24.791H17.5149M32.0837 17.4994C32.0837 25.5535 25.5545 32.0827 17.5003 32.0827C9.44617 32.0827 2.91699 25.5535 2.91699 17.4994C2.91699 9.4452 9.44617 2.91602 17.5003 2.91602C25.5545 2.91602 32.0837 9.4452 32.0837 17.4994Z" stroke="#D9D9D9" stroke-width="3" stroke-linecap="round" stroke-linejoin="round"/>
</svg>
