<svg width="35" height="35" viewBox="0 0 35 35" fill="none" xmlns="http://www.w3.org/2000/svg">
<g clip-path="url(#clip0_378_23856)">
<path d="M23.333 30.625V27.7083C23.333 26.1612 22.7184 24.6775 21.6245 23.5835C20.5305 22.4896 19.0468 21.875 17.4997 21.875H7.29134C5.74425 21.875 4.26051 22.4896 3.16655 23.5835C2.07259 24.6775 1.45801 26.1612 1.45801 27.7083V30.625M29.1663 11.6667V20.4167M33.5413 16.0417H24.7913M18.2288 10.2083C18.2288 13.43 15.6172 16.0417 12.3955 16.0417C9.17385 16.0417 6.56218 13.43 6.56218 10.2083C6.56218 6.98667 9.17385 4.375 12.3955 4.375C15.6172 4.375 18.2288 6.98667 18.2288 10.2083Z" stroke="#D9D9D9" stroke-width="4" stroke-linecap="round" stroke-linejoin="round"/>
</g>
<defs>
<clipPath id="clip0_378_23856">
<rect width="35" height="35" fill="white"/>
</clipPath>
</defs>
</svg>
