<svg width="16" height="16" viewBox="0 0 16 16" fill="none" xmlns="http://www.w3.org/2000/svg">
<rect x="1" y="1" width="14" height="14" rx="7" stroke="#908F8F" stroke-width="2"/>
<path fill-rule="evenodd" clip-rule="evenodd" d="M6.88293 6.14091C6.7834 6.04817 6.65177 5.99768 6.51575 6.00008C6.37974 6.00248 6.24996 6.05758 6.15377 6.15377C6.05758 6.24996 6.00248 6.37974 6.00008 6.51575C5.99768 6.65177 6.04817 6.7834 6.14091 6.88293L7.34494 8.08696L6.14091 9.29099C6.04817 9.39051 5.99768 9.52215 6.00008 9.65816C6.00248 9.79418 6.05758 9.92395 6.15377 10.0201C6.24996 10.1163 6.37974 10.1714 6.51575 10.1738C6.65177 10.1762 6.7834 10.1257 6.88293 10.033L8.08696 8.82897L9.29099 10.033C9.39051 10.1257 9.52215 10.1762 9.65816 10.1738C9.79418 10.1714 9.92395 10.1163 10.0201 10.0201C10.1163 9.92395 10.1714 9.79418 10.1738 9.65816C10.1762 9.52215 10.1257 9.39051 10.033 9.29099L8.82897 8.08696L10.033 6.88293C10.1257 6.7834 10.1762 6.65177 10.1738 6.51575C10.1714 6.37974 10.1163 6.24996 10.0201 6.15377C9.92395 6.05758 9.79418 6.00248 9.65816 6.00008C9.52215 5.99768 9.39051 6.04817 9.29099 6.14091L8.08696 7.34494L6.88293 6.14091Z" fill="#908F8F"/>
</svg>
